<?xml version="1.0" encoding="UTF-8"?>
<!DOCTYPE svg PUBLIC "-//W3C//DTD SVG 1.1//EN" "http://www.w3.org/Graphics/SVG/1.1/DTD/svg11.dtd">
<svg xmlns="http://www.w3.org/2000/svg" version="1.1" width="176px" height="118px" style="shape-rendering:geometricPrecision; text-rendering:geometricPrecision; image-rendering:optimizeQuality; fill-rule:evenodd; clip-rule:evenodd" xmlns:xlink="http://www.w3.org/1999/xlink">
<g><path style="opacity:0.004" fill="#000000" d="M 0.5,-0.5 C 0.833333,-0.5 1.16667,-0.5 1.5,-0.5C 1.31468,0.170143 0.981346,0.170143 0.5,-0.5 Z"/></g>
<g><path style="opacity:0.004" fill="#000000" d="M 90.5,0.5 C 91.8333,1.16667 91.8333,1.16667 90.5,0.5 Z"/></g>
<g><path style="opacity:0.004" fill="#000000" d="M 55.5,4.5 C 56.8333,5.16667 56.8333,5.16667 55.5,4.5 Z"/></g>
<g><path style="opacity:0.004" fill="#000000" d="M 52.5,5.5 C 53.8333,6.16667 53.8333,6.16667 52.5,5.5 Z"/></g>
<g><path style="opacity:0.004" fill="#000000" d="M 111.5,9.5 C 112.833,10.1667 112.833,10.1667 111.5,9.5 Z"/></g>
<g><path style="opacity:0.004" fill="#000000" d="M 72.5,10.5 C 73.8333,11.1667 73.8333,11.1667 72.5,10.5 Z"/></g>
<g><path style="opacity:0.004" fill="#000000" d="M 159.5,15.5 C 160.833,16.1667 160.833,16.1667 159.5,15.5 Z"/></g>
<g><path style="opacity:1" fill="#f3f3f3" d="M 144.5,90.5 C 144.5,92.1667 144.5,93.8333 144.5,95.5C 139.5,95.5 134.5,95.5 129.5,95.5C 125.609,71.1532 121.609,46.8199 117.5,22.5C 115.653,21.1696 114.153,21.503 113,23.5C 111.545,35.1828 110.045,46.8495 108.5,58.5C 107.566,59.5676 107.232,60.901 107.5,62.5C 106.634,73.8941 105.301,85.2275 103.5,96.5C 91.4815,96.8323 79.4815,96.499 67.5,95.5C 64.2536,71.1966 61.087,46.8632 58,22.5C 56.6439,21.6198 55.1439,21.2865 53.5,21.5C 49.4986,46.1749 45.4986,70.8416 41.5,95.5C 36.5,95.5 31.5,95.5 26.5,95.5C 26.5,93.8333 26.5,92.1667 26.5,90.5C 27.8564,77.6965 29.8564,65.0299 32.5,52.5C 33.4511,51.0813 33.7845,49.4147 33.5,47.5C 34.6162,37.4699 35.9495,27.4699 37.5,17.5C 49.5,17.5 61.5,17.5 73.5,17.5C 76.7474,41.8124 79.9141,66.1458 83,90.5C 84.049,92.1066 85.549,92.7733 87.5,92.5C 90.8333,67.5 94.1667,42.5 97.5,17.5C 109.5,17.5 121.5,17.5 133.5,17.5C 137.058,41.8499 140.725,66.1832 144.5,90.5 Z"/></g>
<g><path style="opacity:0.004" fill="#000000" d="M 147.5,18.5 C 148.833,19.1667 148.833,19.1667 147.5,18.5 Z"/></g>
<g><path style="opacity:0.004" fill="#000000" d="M 1.5,19.5 C 2.83333,20.1667 2.83333,20.1667 1.5,19.5 Z"/></g>
<g><path style="opacity:0.004" fill="#000000" d="M 171.5,24.5 C 172.833,25.1667 172.833,25.1667 171.5,24.5 Z"/></g>
<g><path style="opacity:0.004" fill="#000000" d="M 77.5,34.5 C 78.8333,35.1667 78.8333,35.1667 77.5,34.5 Z"/></g>
<g><path style="opacity:0.004" fill="#000000" d="M 9.5,42.5 C 10.8333,43.1667 10.8333,43.1667 9.5,42.5 Z"/></g>
<g><path style="opacity:0.804" fill="#8b8b8b" d="M 33.5,47.5 C 33.7845,49.4147 33.4511,51.0813 32.5,52.5C 32.0618,52.5654 31.7284,52.3988 31.5,52C 32.0989,50.3775 32.7656,48.8775 33.5,47.5 Z"/></g>
<g><path style="opacity:0.004" fill="#000000" d="M 19.5,53.5 C 20.8333,54.1667 20.8333,54.1667 19.5,53.5 Z"/></g>
<g><path style="opacity:0.004" fill="#000000" d="M 53.5,54.5 C 54.8333,55.1667 54.8333,55.1667 53.5,54.5 Z"/></g>
<g><path style="opacity:0.004" fill="#000000" d="M 50.5,56.5 C 51.8333,57.1667 51.8333,57.1667 50.5,56.5 Z"/></g>
<g><path style="opacity:0.004" fill="#000000" d="M 114.5,57.5 C 115.833,58.1667 115.833,58.1667 114.5,57.5 Z"/></g>
<g><path style="opacity:0.004" fill="#000000" d="M 147.5,58.5 C 148.833,59.1667 148.833,59.1667 147.5,58.5 Z"/></g>
<g><path style="opacity:0.224" fill="#4f4f4f" d="M 108.5,58.5 C 108.33,59.8221 108.663,60.9887 109.5,62C 108.906,62.4643 108.239,62.631 107.5,62.5C 107.232,60.901 107.566,59.5676 108.5,58.5 Z"/></g>
<g><path style="opacity:0.004" fill="#000000" d="M 154.5,60.5 C 155.833,61.1667 155.833,61.1667 154.5,60.5 Z"/></g>
<g><path style="opacity:0.004" fill="#000000" d="M 16.5,63.5 C 17.8333,64.1667 17.8333,64.1667 16.5,63.5 Z"/></g>
<g><path style="opacity:0.004" fill="#000000" d="M 6.5,65.5 C 7.83333,66.1667 7.83333,66.1667 6.5,65.5 Z"/></g>
<g><path style="opacity:0.004" fill="#000000" d="M 161.5,69.5 C 162.833,70.1667 162.833,70.1667 161.5,69.5 Z"/></g>
<g><path style="opacity:0.004" fill="#000000" d="M 111.5,72.5 C 112.833,73.1667 112.833,73.1667 111.5,72.5 Z"/></g>
<g><path style="opacity:0.004" fill="#000000" d="M 158.5,73.5 C 159.833,74.1667 159.833,74.1667 158.5,73.5 Z"/></g>
<g><path style="opacity:0.004" fill="#000000" d="M 145.5,74.5 C 146.833,75.1667 146.833,75.1667 145.5,74.5 Z"/></g>
<g><path style="opacity:0.004" fill="#000000" d="M 151.5,75.5 C 152.833,76.1667 152.833,76.1667 151.5,75.5 Z"/></g>
<g><path style="opacity:0.004" fill="#000000" d="M 63.5,78.5 C 64.8333,79.1667 64.8333,79.1667 63.5,78.5 Z"/></g>
<g><path style="opacity:0.004" fill="#000000" d="M 114.5,86.5 C 114.369,85.7611 114.536,85.0944 115,84.5C 115.692,85.4368 115.525,86.1034 114.5,86.5 Z"/></g>
<g><path style="opacity:0.004" fill="#000000" d="M 114.5,86.5 C 113.833,87.1667 113.833,87.1667 114.5,86.5 Z"/></g>
<g><path style="opacity:0.004" fill="#000000" d="M 148.5,87.5 C 149.833,88.1667 149.833,88.1667 148.5,87.5 Z"/></g>
<g><path style="opacity:0.004" fill="#000000" d="M 61.5,90.5 C 62.8333,91.1667 62.8333,91.1667 61.5,90.5 Z"/></g>
<g><path style="opacity:0.004" fill="#000000" d="M 152.5,92.5 C 153.833,93.1667 153.833,93.1667 152.5,92.5 Z"/></g>
<g><path style="opacity:0.805" fill="#afafaf" d="M 26.5,90.5 C 26.5,92.1667 26.5,93.8333 26.5,95.5C 31.5,95.5 36.5,95.5 41.5,95.5C 40.469,96.2485 39.3024,96.9152 38,97.5C 33.9341,96.5363 29.7675,96.203 25.5,96.5C 25.2053,94.2646 25.5386,92.2646 26.5,90.5 Z"/></g>
<g><path style="opacity:0.829" fill="#bcbcbc" d="M 144.5,90.5 C 145.461,92.2646 145.795,94.2646 145.5,96.5C 139.974,96.8214 134.64,96.4881 129.5,95.5C 134.5,95.5 139.5,95.5 144.5,95.5C 144.5,93.8333 144.5,92.1667 144.5,90.5 Z"/></g>
<g><path style="opacity:0.004" fill="#000000" d="M 46.5,100.5 C 47.8333,101.167 47.8333,101.167 46.5,100.5 Z"/></g>
<g><path style="opacity:0.004" fill="#000000" d="M 76.5,100.5 C 77.8333,101.167 77.8333,101.167 76.5,100.5 Z"/></g>
<g><path style="opacity:0.004" fill="#000000" d="M 136.5,100.5 C 137.833,101.167 137.833,101.167 136.5,100.5 Z"/></g>
<g><path style="opacity:0.004" fill="#000000" d="M 9.5,101.5 C 10.8333,102.167 10.8333,102.167 9.5,101.5 Z"/></g>
<g><path style="opacity:0.004" fill="#000000" d="M 67.5,102.5 C 68.8333,103.167 68.8333,103.167 67.5,102.5 Z"/></g>
<g><path style="opacity:0.004" fill="#000000" d="M 36.5,104.5 C 37.8333,105.167 37.8333,105.167 36.5,104.5 Z"/></g>
<g><path style="opacity:0.004" fill="#000000" d="M 89.5,104.5 C 90.8333,105.167 90.8333,105.167 89.5,104.5 Z"/></g>
<g><path style="opacity:0.004" fill="#fe0000" d="M 121.5,104.5 C 122.833,105.167 122.833,105.167 121.5,104.5 Z"/></g>
<g><path style="opacity:0.004" fill="#000000" d="M 158.5,105.5 C 159.833,106.167 159.833,106.167 158.5,105.5 Z"/></g>
<g><path style="opacity:0.004" fill="#000000" d="M 162.5,105.5 C 163.833,106.167 163.833,106.167 162.5,105.5 Z"/></g>
<g><path style="opacity:0.004" fill="#000000" d="M 39.5,107.5 C 40.8333,108.167 40.8333,108.167 39.5,107.5 Z"/></g>
<g><path style="opacity:0.004" fill="#000000" d="M 53.5,109.5 C 54.8333,110.167 54.8333,110.167 53.5,109.5 Z"/></g>
<g><path style="opacity:0.004" fill="#000000" d="M 60.5,109.5 C 61.8333,110.167 61.8333,110.167 60.5,109.5 Z"/></g>
<g><path style="opacity:0.004" fill="#000000" d="M 40.5,111.5 C 41.8333,112.167 41.8333,112.167 40.5,111.5 Z"/></g>
<g><path style="opacity:0.004" fill="#000000" d="M 66.5,112.5 C 67.8333,113.167 67.8333,113.167 66.5,112.5 Z"/></g>
<g><path style="opacity:0.004" fill="#000000" d="M 26.5,113.5 C 27.8333,114.167 27.8333,114.167 26.5,113.5 Z"/></g>
<g><path style="opacity:0.004" fill="#000000" d="M 101.5,113.5 C 102.833,114.167 102.833,114.167 101.5,113.5 Z"/></g>
<g><path style="opacity:0.004" fill="#000000" d="M 38.5,114.5 C 39.8333,115.167 39.8333,115.167 38.5,114.5 Z"/></g>
</svg>
