<svg width="221" height="79" viewBox="0 0 221 79" fill="none" xmlns="http://www.w3.org/2000/svg">
<g clip-path="url(#clip0_136_63)">
<path d="M0 1.08691H16.8482L29.0223 73.371H33.3702L42.8269 1.08691H79.7842L89.2409 73.371H93.5888L105.763 1.08691H122.611L109.459 77.7189H73.371L63.4795 5.43483H59.1316L49.2401 77.7189H13.1524L0 1.08691Z" fill="white"/>
<path d="M121.239 39.3486C121.239 27.9716 124.789 18.5873 131.891 11.1959C138.993 3.73196 148.485 0 160.37 0C172.254 0 181.711 3.73196 188.74 11.1959C195.841 18.5873 199.392 27.9716 199.392 39.3486C199.392 50.7981 195.841 60.2548 188.74 67.7188C181.711 75.1102 172.254 78.8059 160.37 78.8059C148.413 78.8059 138.884 75.1102 131.782 67.7188C124.753 60.2548 121.239 50.7981 121.239 39.3486ZM144.174 21.6309C140.478 25.9063 138.63 31.8122 138.63 39.3486C138.63 46.885 140.478 52.8271 144.174 57.1751C147.869 61.4505 153.268 63.5882 160.37 63.5882C167.471 63.5882 172.834 61.4505 176.457 57.1751C180.153 52.8271 182.001 46.885 182.001 39.3486C182.001 31.8122 180.153 25.9063 176.457 21.6309C172.834 17.3554 167.471 15.2177 160.37 15.2177C153.268 15.2177 147.869 17.3554 144.174 21.6309Z" fill="white"/>
<path d="M203.61 77.7189V1.08691H294.232C316.986 1.08691 328.363 8.22474 328.363 22.5004C328.363 32.4281 321.877 38.1529 308.906 39.6746V44.0226H320.102C326.261 44.0226 329.341 47.1023 329.341 53.2619V77.7189H311.949V50.7618H296.949H221.002V77.7189H203.61ZM221.002 35.5441H294.232C296.913 35.5441 298.833 35.5441 299.993 35.5441C301.224 35.4717 302.71 35.2905 304.449 35.0006C306.188 34.6383 307.42 34.1311 308.145 33.4789C308.87 32.8267 309.522 31.8846 310.101 30.6527C310.681 29.4208 310.971 27.8628 310.971 25.9787C310.971 24.0946 310.681 22.5366 310.101 21.3047C309.522 20.0003 308.87 19.0221 308.145 18.3699C307.42 17.7177 306.188 17.2467 304.449 16.9568C302.71 16.5945 301.224 16.4133 239.045 16.4133C237.886 16.3408 296.913 16.3046 294.232 16.3046H221.002V35.5441Z" fill="white"/>
</g>
<defs>
<clipPath id="clip0_136_63">
<rect width="221" height="79" fill="white"/>
</clipPath>
</defs>
</svg>
