<svg width="121" height="79" viewBox="0 0 121 79" fill="none" xmlns="http://www.w3.org/2000/svg">
<g clip-path="url(#clip0_136_78)">
<path d="M-117.39 77.7189V1.08691L9 1.08691C31.7541 1.08691 43.1311 8.22474 43.1311 22.5004C43.1311 32.4281 36.6455 38.1529 23.6742 39.6746V44.0226H34.8701C41.0296 44.0226 44.1094 47.1023 44.1094 53.2619V77.7189H26.7177V50.7618H11.7174H-99.9984V77.7189H-117.39ZM-99.9984 35.5441H9C11.6812 35.5441 13.6015 35.5441 14.761 35.5441C15.9929 35.4717 17.4784 35.2905 19.2176 35.0006C20.9568 34.6383 22.1887 34.1311 22.9133 33.4789C23.638 32.8267 24.2902 31.8846 24.8699 30.6527C25.4496 29.4208 25.7395 27.8628 25.7395 25.9787C25.7395 24.0946 25.4496 22.5366 24.8699 21.3047C24.2902 20.0003 23.638 19.0221 22.9133 18.3699C22.1887 17.7177 20.9568 17.2467 19.2176 16.9568C17.4784 16.5945 -19.7755 16.4133 -81.9545 16.4133C-83.114 16.3408 11.6812 16.3046 9 16.3046H-99.9984V35.5441Z" fill="white"/>
<path d="M121 1.08691L74.8034 39.4572L121 77.7189H95.5647L63.4988 50.6531V77.7189H46.1072V1.08691H63.4988V28.2614L95.5647 1.08691H121Z" fill="white"/>
</g>
<defs>
<clipPath id="clip0_136_78">
<rect width="121" height="79" fill="white"/>
</clipPath>
</defs>
</svg>
