<svg width="92" height="100" viewBox="0 0 92 100" fill="none" xmlns="http://www.w3.org/2000/svg">
<path d="M75.8275 93.9547L61.0169 97.6107L55.0359 78.7314C46.69 80.3153 37.8008 79.3488 28.3685 75.8318C17.8743 71.9188 10.3699 66.666 5.85541 60.0733C1.42666 53.4414 0.737873 46.034 3.78906 37.851C6.00176 31.9167 9.45902 28.083 14.1608 26.3498C18.9251 24.6399 23.6497 24.6584 28.3347 26.4053C33.3944 28.2919 36.9825 31.8354 39.0989 37.0359L40.4964 33.288L32.6668 8.48985L35.0775 2.02466L86.2368 21.1004L81.3456 34.2182L50.7999 22.8286L63.3669 58.6783C68.1968 54.5026 71.986 48.7293 74.7344 41.3584L89.7261 46.9483C85.1843 59.1291 78.1628 68.0374 68.6618 73.6731L75.8275 93.9547ZM33.2597 62.714C39.5063 65.0432 45.2933 65.7424 50.6209 64.8117L47.6892 55.5007C46.1899 50.7438 44.3885 47.0838 42.2847 44.5206C40.181 41.9574 37.4113 40.0353 33.9757 38.7543C30.5401 37.4733 27.3835 37.2568 24.5059 38.1049C21.6907 38.9762 19.7125 40.9423 18.5712 44.0031C15.683 51.7489 20.5792 57.9858 33.2597 62.714Z" fill="#FF5DE4" stroke="#1E1E1E" stroke-width="3"/>
</svg>
