<svg width="21" height="21" viewBox="0 0 21 21" fill="none" xmlns="http://www.w3.org/2000/svg">
<path d="M20.132 10.4983C20.132 8.19465 15.82 6.32716 10.501 6.32717C5.18187 6.32717 0.869903 8.19465 0.869903 10.4983C0.869903 12.802 5.18187 14.6694 10.501 14.6694C15.82 14.6694 20.132 12.802 20.132 10.4983Z" stroke="#1E1E1E" stroke-width="0.3" stroke-miterlimit="10"/>
<path d="M14.6721 10.4983C14.6721 5.17925 12.8046 0.867279 10.5009 0.867279C8.19728 0.867279 6.3298 5.17925 6.3298 10.4983C6.3298 15.8174 8.19728 20.1294 10.5009 20.1294C12.8046 20.1294 14.6721 15.8174 14.6721 10.4983Z" stroke="#1E1E1E" stroke-width="0.3" stroke-miterlimit="10"/>
<path d="M17.3116 3.68825C15.6826 2.05932 11.3131 3.78783 7.55194 7.549C3.79077 11.3102 2.06226 15.6797 3.69119 17.3086C5.32012 18.9376 9.68965 17.209 13.4508 13.4479C17.212 9.68671 18.9405 5.31718 17.3116 3.68825Z" stroke="#1E1E1E" stroke-width="0.3" stroke-miterlimit="10"/>
<path d="M13.4508 7.549C9.68962 3.78783 5.32008 2.05932 3.69115 3.68825C2.06223 5.31718 3.79074 9.68671 7.55191 13.4479C11.3131 17.209 15.6826 18.9375 17.3115 17.3086C18.9405 15.6797 17.2119 11.3102 13.4508 7.549Z" stroke="#1E1E1E" stroke-width="0.3" stroke-miterlimit="10"/>
<path d="M12.2009 6.68428C7.34133 4.52166 2.64256 4.47467 1.70595 6.57933C0.769336 8.68398 3.94955 12.1433 8.80916 14.3059C13.6688 16.4685 18.3675 16.5155 19.3041 14.4109C20.2407 12.3062 17.0605 8.8469 12.2009 6.68428Z" stroke="#1E1E1E" stroke-width="0.3" stroke-miterlimit="10"/>
<path d="M14.4208 1.69592C12.3161 0.759305 8.85681 3.93952 6.69419 8.79912C4.53157 13.6587 4.48458 18.3575 6.58924 19.2941C8.6939 20.2307 12.1532 17.0505 14.3158 12.1909C16.4784 7.33129 16.5254 2.63253 14.4208 1.69592Z" stroke="#1E1E1E" stroke-width="0.3" stroke-miterlimit="10"/>
<path d="M19.272 6.53496C18.324 4.4354 13.6256 4.50781 8.77777 6.69669C3.92993 8.88557 0.768485 12.362 1.71647 14.4616C2.66446 16.5612 7.3629 16.4887 12.2107 14.2999C17.0586 12.111 20.22 8.63452 19.272 6.53496Z" stroke="#1E1E1E" stroke-width="0.3" stroke-miterlimit="10"/>
<path d="M14.2958 8.78169C12.1069 3.93386 8.63045 0.772405 6.53089 1.72039C4.43133 2.66838 4.50375 7.36682 6.69263 12.2147C8.88151 17.0625 12.358 20.2239 14.4575 19.2759C16.5571 18.328 16.4847 13.6295 14.2958 8.78169Z" stroke="#1E1E1E" stroke-width="0.3" stroke-miterlimit="10"/>
</svg>
