<svg width="559" height="97" viewBox="0 0 559 97" fill="none" xmlns="http://www.w3.org/2000/svg">
<path d="M2.40002 48.816C2.40002 35.4186 6.58136 24.368 14.944 15.664C23.392 6.87465 34.656 2.47998 48.736 2.47998C61.28 2.47998 71.4774 5.72265 79.328 12.208C87.264 18.608 91.9147 27.3973 93.28 38.576H72.8C71.776 32.7733 69.1307 28.2933 64.864 25.136C60.5974 21.9786 55.3067 20.4 48.992 20.4C40.9707 20.4 34.6134 22.8746 29.92 27.824C25.2267 32.688 22.88 39.6853 22.88 48.816C22.88 57.9467 25.2267 64.9866 29.92 69.936C34.6134 74.8853 40.9707 77.36 48.992 77.36C55.3067 77.36 60.5974 75.7813 64.864 72.624C69.1307 69.3813 71.776 64.8587 72.8 59.056H93.28C91.9147 70.32 87.264 79.1947 79.328 85.68C71.4774 92.08 61.28 95.28 48.736 95.28C34.656 95.28 23.392 90.928 14.944 82.224C6.58136 73.4347 2.40002 62.2986 2.40002 48.816Z" fill="#FAFAFA" stroke="#1E1E1E" stroke-width="3"/>
<path d="M85.12 60.464V3.76001H105.6V51.376C105.6 55.1307 105.685 58.16 105.856 60.464C106.112 62.6827 106.581 64.9867 107.264 67.376C108.032 69.7653 109.141 71.6427 110.592 73.008C112.043 74.288 114.005 75.3547 116.48 76.208C119.04 76.976 122.155 77.36 125.824 77.36C130.432 77.36 134.144 76.8053 136.96 75.696C139.776 74.5867 141.824 72.7947 143.104 70.32C144.384 67.76 145.195 65.1147 145.536 62.384C145.963 59.6533 146.176 55.984 146.176 51.376V3.76001H166.656V60.464C166.656 71.728 163.157 80.3467 156.16 86.32C149.248 92.2933 139.136 95.28 125.824 95.28C112.512 95.28 102.4 92.336 95.488 86.448C88.576 80.4747 85.12 71.8133 85.12 60.464Z" fill="#FAFAFA" stroke="#1E1E1E" stroke-width="3"/>
<path d="M170.688 95.28C167.189 95.3653 164.459 94.4694 162.496 92.592C160.619 90.7147 159.68 88.0267 159.68 84.528V3.76001H180.16V77.36L224.064 76.08V94L170.688 95.28Z" fill="#FAFAFA" stroke="#1E1E1E" stroke-width="3"/>
<path d="M270.328 3.76001V21.68H240.888V94H220.408V21.68H190.84V3.76001H270.328Z" fill="#FAFAFA" stroke="#1E1E1E" stroke-width="3"/>
<path d="M260 60.464V3.76001H280.48V51.376C280.48 55.1307 280.565 58.16 280.736 60.464C280.992 62.6827 281.461 64.9867 282.144 67.376C282.912 69.7653 284.021 71.6427 285.472 73.008C286.923 74.288 288.885 75.3547 291.36 76.208C293.92 76.976 297.035 77.36 300.704 77.36C305.312 77.36 309.024 76.8053 311.84 75.696C314.656 74.5867 316.704 72.7947 317.984 70.32C319.264 67.76 320.075 65.1147 320.416 62.384C320.843 59.6533 321.056 55.984 321.056 51.376V3.76001H341.536V60.464C341.536 71.728 338.037 80.3467 331.04 86.32C324.128 92.2933 314.016 95.28 300.704 95.28C287.392 95.28 277.28 92.336 270.368 86.448C263.456 80.4747 260 71.8133 260 60.464Z" fill="#FAFAFA" stroke="#1E1E1E" stroke-width="3"/>
<path d="M339.68 94V3.76001H374.624C401.419 3.76001 414.816 12.1653 414.816 28.976C414.816 40.6667 407.179 47.408 391.904 49.2V54.32H405.088C412.341 54.32 415.968 57.9467 415.968 65.2V94H395.488V62.256H360.16V94H339.68ZM360.16 44.336H374.624C377.781 44.336 380.043 44.336 381.408 44.336C382.859 44.2507 384.608 44.0373 386.656 43.696C388.704 43.2693 390.155 42.672 391.008 41.904C391.861 41.136 392.629 40.0267 393.312 38.576C393.995 37.1253 394.336 35.2907 394.336 33.072C394.336 30.8533 393.995 29.0187 393.312 27.568C392.629 26.032 391.861 24.88 391.008 24.112C390.155 23.344 388.704 22.7893 386.656 22.448C384.608 22.0213 382.859 21.808 381.408 21.808C380.043 21.7227 377.781 21.68 374.624 21.68H360.16V44.336Z" fill="#FAFAFA" stroke="#1E1E1E" stroke-width="3"/>
<path d="M413 94V3.76001H557.064V21.68H433.48V39.856H550.664V57.776H433.48V76.08H557.064V94H413Z" fill="#FAFAFA" stroke="#1E1E1E" stroke-width="3"/>
</svg>
