<svg width="139" height="41" viewBox="0 0 139 41" fill="none" xmlns="http://www.w3.org/2000/svg">
<g clip-path="url(#clip0_73_19)">
<path d="M37.0855 11.6346C43.2177 11.6346 46.2838 16.2337 46.2838 25.432V39.8317H37.5235V26.0343C37.5235 23.4062 37.2315 21.6359 36.6475 20.7234C36.1 19.7743 35.0232 19.2998 33.4172 19.2998C31.1906 19.2998 29.6575 20.1941 28.818 21.9827C27.9785 23.7712 27.5587 26.4906 27.5587 30.1407V39.8317H18.7985V26.0343C18.7985 23.4062 18.5064 21.6359 17.9224 20.7234C17.3749 19.7743 16.2981 19.2998 14.6921 19.2998C12.4655 19.2998 10.9325 20.1941 10.0929 21.9827C9.2534 23.7712 8.83364 26.4906 8.83364 30.1407V39.8317H0.0733643V12.1821H8.83364V14.9744L7.19109 19.9021H9.38116C10.6222 14.3904 13.6153 11.6346 18.3604 11.6346C22.8866 11.6346 25.6242 14.3904 26.5732 19.9021H28.161C29.402 14.3904 32.3769 11.6346 37.0855 11.6346Z" fill="white"/>
<path d="M50.0908 39.8318V32.1665H57.9203V19.5189L51.1859 19.8474V12.1821L61.5887 11.6346C63.1217 11.5616 64.2898 11.9266 65.0928 12.7296C65.9323 13.5327 66.3521 14.7007 66.3521 16.2338V32.1665H74.1816V39.8318H50.0908Z" fill="white"/>
<path d="M94.278 19.2998C91.723 19.2998 89.7701 20.1028 88.4196 21.7089C87.0691 23.2785 86.3938 25.9065 86.3938 29.5931V39.8317H77.6335V12.1821H86.3938V15.522L84.7512 20.4496H86.9413C87.5253 17.8215 88.7116 15.7045 90.5002 14.0984C92.2887 12.4559 94.5883 11.6346 97.3989 11.6346C100.976 11.6346 103.75 12.7844 105.721 15.0839C107.729 17.3835 108.732 20.6504 108.732 24.8845V39.8317H99.9722V26.2533C99.9722 23.7347 99.5342 21.9462 98.6582 20.8876C97.8186 19.8291 96.3586 19.2998 94.278 19.2998Z" fill="white"/>
<path d="M229.687 39.8318H135.412V38.1344L137.055 33.2068H134.865C134.025 35.3969 132.766 37.1489 131.087 38.463C129.444 39.7405 127.072 40.3793 123.969 40.3793C120.137 40.3793 117.18 39.0105 115.099 36.2729C113.019 33.5353 111.979 30.1042 111.979 25.9796C111.979 21.8549 113.019 18.4421 115.099 15.741C117.18 13.0034 120.137 11.6346 123.969 11.6346C127.072 11.6346 129.444 12.2916 131.087 13.6057C132.766 14.8832 134.025 16.617 134.865 18.8071H137.055L135.412 13.8794V-0.410767L229.687 -0.410767V39.8318ZM135.412 25.9796C135.412 21.5264 132.967 19.2999 128.076 19.2999C123.184 19.2999 120.739 21.5264 120.739 25.9796C120.739 30.4692 123.184 32.714 128.076 32.714C132.967 32.714 135.412 30.4692 135.412 25.9796Z" fill="white"/>
</g>
<defs>
<clipPath id="clip0_73_19">
<rect width="139" height="41" fill="white"/>
</clipPath>
</defs>
</svg>
