<svg width="100" height="40" viewBox="0 0 100 40" fill="none" xmlns="http://www.w3.org/2000/svg">
<g clip-path="url(#clip0_72_45)">
<path d="M100.5 40.4497H-6.91101V38.7436L-5.22253 33.7906H-7.47384C-8.33684 35.9919 -9.63134 37.753 -11.3573 39.0738C-13.0458 40.3579 -15.4847 41 -18.6741 41C-22.6139 41 -25.6531 39.6242 -27.7919 36.8725C-29.9306 34.1208 -31 30.672 -31 26.5262C-31 22.3803 -29.9306 18.9499 -27.7919 16.2349C-25.6531 13.4832 -22.6139 12.1074 -18.6741 12.1074C-15.4847 12.1074 -13.0458 12.7678 -11.3573 14.0886C-9.63134 15.3727 -8.33684 17.1154 -7.47384 19.3168H-5.22253L-6.91101 14.3638V0H100.5V40.4497ZM-6.91101 26.5262C-6.91101 22.0501 -9.42497 19.8121 -14.4529 19.8121C-19.4808 19.8121 -21.9948 22.0501 -21.9948 26.5262C-21.9948 31.0389 -19.4808 33.2953 -14.4529 33.2953C-9.42497 33.2953 -6.91101 31.0389 -6.91101 26.5262Z" fill="white"/>
<path d="M13.6621 16.3252C9.44339 16.3252 7.33401 14.2246 7.33401 10.041V9.35547C7.33401 5.17188 9.44339 3.07129 13.6621 3.07129C17.6875 3.07129 19.5948 4.9873 19.6299 8.38867V8.5293H15.1739V8.23047C15.1563 7.07031 14.5586 6.45508 13.6006 6.45508C12.5635 6.45508 11.8428 7.17578 11.8428 8.82812V10.5684C11.8428 12.2207 12.5635 12.9414 13.6006 12.9414C14.5762 12.9414 15.209 12.3086 15.2178 11.0957V10.7178H19.6914V10.8584C19.6739 14.4268 17.7578 16.3252 13.6621 16.3252ZM20.544 16V3.39648H28.1905C30.7129 3.39648 32.128 4.82031 32.128 7.17578V7.35156C32.128 9.07422 31.3369 10.1904 30.0098 10.5596C30.7832 10.8496 31.2403 11.5176 31.4776 12.6514L31.8116 14.2949C31.9785 15.1123 32.1807 15.6045 32.4795 15.9121V16H27.8477C27.6719 15.6484 27.5928 15.209 27.4785 14.4443L27.3379 13.1699C27.2149 12.3965 26.8194 12.0361 26.169 12.0361H24.877V16H20.544ZM26.5733 9.20605C27.3379 9.20605 27.8125 8.72266 27.8125 7.98438V7.79102C27.8125 7.0791 27.3379 6.5957 26.5733 6.5957H24.877V9.20605H26.5733ZM33.0244 16V3.39648H43.2022V6.6748H37.375V8.30957H42.0596V10.999H37.375V12.7217H43.2373V16H33.0244ZM43.3604 16L47.3067 3.39648H52.4659L56.4297 16H51.9385L51.5166 14.2773H48.1241L47.711 16H43.3604ZM48.7832 11.5352H50.8487L49.8116 7.28125L48.7832 11.5352ZM58.2491 16V6.75391H54.8477V3.39648H66.001V6.75391H62.5996V16H58.2491ZM66.8799 16V3.39648H71.2305V16H66.8799ZM75.5547 16L71.5557 3.39648H76.0821L78.1123 11.1748L80.0811 3.39648H84.4932L80.5205 16H75.5547ZM84.8096 16V3.39648H94.9873V6.6748H89.1602V8.30957H93.8448V10.999H89.1602V12.7217H95.0225V16H84.8096ZM6.7803 36L10.7266 23.3965H15.8858L19.8496 36H15.3584L14.9366 34.2773H11.544L11.1309 36H6.7803ZM12.2032 31.5352H14.2686L13.2315 27.2812L12.2032 31.5352ZM25.835 31.5879V28.9512H32.2159V36H29.3242L28.7793 34.5586C28.1289 35.7627 26.8721 36.3252 25 36.3252C21.5899 36.3252 19.753 34.4883 19.753 30.709V29.4521C19.753 25.1631 21.8623 23.0713 26.169 23.0713C30.2383 23.0713 32.0752 24.9258 32.1367 28.0195V28.0811H27.6895V28.0371C27.6543 27.0176 27.0742 26.4199 26.0899 26.4199C24.9912 26.4199 24.2354 27.167 24.2354 28.8545V30.542C24.2354 32.2822 24.9561 33.0029 26.1866 33.0029C27.294 33.0029 27.9004 32.3965 27.918 31.5879H25.835ZM33.253 36V23.3965H43.4307V26.6748H37.6035V28.3096H42.2881V30.999H37.6035V32.7217H43.4659V36H33.253ZM44.3623 36V23.3965H49.17L52.3076 30.0674L52.2989 23.3965H56.1573V36H51.71L48.2119 28.6787V36H44.3623ZM63.3555 36.3252C59.1367 36.3252 57.0274 34.2246 57.0274 30.041V29.3555C57.0274 25.1719 59.1367 23.0713 63.3555 23.0713C67.3809 23.0713 69.2881 24.9873 69.3233 28.3887V28.5293H64.8672V28.2305C64.8496 27.0703 64.252 26.4551 63.294 26.4551C62.2569 26.4551 61.5362 27.1758 61.5362 28.8281V30.5684C61.5362 32.2207 62.2569 32.9414 63.294 32.9414C64.2696 32.9414 64.9024 32.3086 64.9112 31.0957V30.7178H69.3848V30.8584C69.3672 34.4268 67.4512 36.3252 63.3555 36.3252ZM72.9092 36V32.124L68.8047 23.3965H73.4014L75.168 28.0107L76.8994 23.3965H81.3643L77.2598 32.124V36H72.9092Z" fill="#1E1E1E"/>
</g>
<defs>
<clipPath id="clip0_72_45">
<rect width="100" height="40" fill="white"/>
</clipPath>
</defs>
</svg>
