<svg width="180" height="41" viewBox="0 0 180 41" fill="none" xmlns="http://www.w3.org/2000/svg">
<g clip-path="url(#clip0_73_45)">
<path d="M31.3095 32.2212C31.3095 37.6599 27.0206 40.3792 18.4429 40.3792C13.5152 40.3792 9.84684 39.4667 7.43777 37.6417C5.06519 35.7801 3.87891 33.1703 3.87891 29.8122H12.6392C12.6392 32.4767 14.665 33.809 18.7166 33.809C21.2717 33.809 22.5492 33.1885 22.5492 31.9475C22.5492 31.327 22.239 30.8524 21.6185 30.5239C20.9979 30.1954 19.6474 29.6844 17.5668 28.9909C17.1288 28.8449 16.8003 28.7354 16.5813 28.6624C16.3988 28.5894 15.76 28.3886 14.665 28.0601C13.57 27.6951 12.8582 27.4578 12.5297 27.3483C12.2377 27.2388 11.6354 27.0016 10.7229 26.6366C9.81034 26.2715 9.18982 25.9613 8.86131 25.7058C8.5328 25.4503 8.05829 25.0853 7.43777 24.6107C6.81725 24.1362 6.37923 23.68 6.12373 23.242C5.90472 22.7674 5.68571 22.2017 5.46671 21.5446C5.2477 20.8876 5.1382 20.1759 5.1382 19.4093C5.1382 16.9638 6.19673 15.0657 8.3138 13.7151C10.4309 12.3281 13.3875 11.6346 17.1836 11.6346C21.6002 11.6346 24.9036 12.5836 27.0936 14.4817C29.2837 16.3432 30.3787 18.7341 30.3787 21.6541H21.6185C21.6185 20.6321 21.2352 19.8108 20.4687 19.1903C19.7022 18.5333 18.5889 18.2048 17.1288 18.2048C14.9753 18.2048 13.8985 18.7341 13.8985 19.7926C13.8985 20.3766 14.3912 20.9059 15.3768 21.3804C16.3988 21.8184 18.2786 22.4754 21.0162 23.3515C24.6298 24.5195 27.0206 25.505 28.1887 26.308C30.2692 27.6951 31.3095 29.6662 31.3095 32.2212Z" fill="white"/>
<path d="M34.6528 25.651C34.6528 21.3439 35.9851 17.931 38.6497 15.4125C41.3508 12.8939 44.8732 11.6346 49.2168 11.6346C53.5604 11.6346 57.0828 12.8574 59.7839 15.3029C62.485 17.712 63.8355 20.9789 63.8355 25.1035V27.8411H42.8656C42.8656 29.4836 43.4679 30.7977 44.6724 31.7832C45.9134 32.7687 47.7385 33.2615 50.1476 33.2615C51.7171 33.2615 53.0312 32.9878 54.0897 32.4402C55.1482 31.8927 55.8052 31.1079 56.0608 30.0859H64.821C64.675 31.1444 64.2735 32.2577 63.6165 33.4258C62.9595 34.5573 62.0469 35.6523 60.8789 36.7109C59.7474 37.7694 58.2326 38.6454 56.3345 39.339C54.473 40.0325 52.4106 40.3792 50.1476 40.3792C45.1104 40.3792 41.2595 38.9739 38.595 36.1634C35.9669 33.3528 34.6528 29.8487 34.6528 25.651ZM42.8656 22.9134H55.6227C55.6227 21.7454 55.1117 20.7599 54.0897 19.9568C53.1042 19.1538 51.4799 18.7523 49.2168 18.7523C46.9537 18.7523 45.3294 19.1538 44.3439 19.9568C43.3584 20.7234 42.8656 21.7089 42.8656 22.9134Z" fill="white"/>
<path d="M80.8656 32.714L91.0495 32.1665V39.8317L76.7593 40.3792C75.2627 40.4157 74.1129 40.0325 73.3099 39.2295C72.5069 38.4264 72.1054 37.2584 72.1054 35.7253V19.8473H65.5352V12.1821H72.1054V6.98069L80.8656 4.2431V12.1821H89.9544V19.8473H80.8656V32.714Z" fill="white"/>
<path d="M96.097 39.8317V36.7657H103.708V2.10781L98.2871 2.65533V-0.410765L103.762 -0.958285C104.967 -1.10429 105.861 -0.86703 106.445 -0.246512C107.029 0.374008 107.321 1.32304 107.321 2.60058V36.7657H114.932V39.8317H96.097Z" fill="white"/>
<path d="M119.628 32.276C119.628 30.0859 120.322 28.3156 121.709 26.9651C123.096 25.578 125.231 24.7568 128.115 24.5013L139.393 23.461C139.065 17.9858 136.364 15.2482 131.29 15.2482C128.991 15.2482 127.074 15.8505 125.541 17.055C124.008 18.2231 123.242 20.1211 123.242 22.7492H119.628C119.628 19.8656 120.65 17.3835 122.694 15.303C124.775 13.2224 127.64 12.1821 131.29 12.1821C134.977 12.1821 137.842 13.3319 139.886 15.6315C141.967 17.8946 143.007 20.8146 143.007 24.3918V36.7657H147.004V39.8317H142.405C140.397 39.8317 139.393 38.828 139.393 36.8204V35.1779L139.941 32.4403H138.846C138.262 34.7398 137.13 36.6379 135.451 38.1344C133.772 39.631 131.454 40.3793 128.498 40.3793C126.673 40.3793 125.121 40.1055 123.844 39.558C122.603 39.0105 121.69 38.2804 121.106 37.3679C120.559 36.4554 120.176 35.5976 119.957 34.7946C119.738 33.9916 119.628 33.152 119.628 32.276ZM123.242 31.9475C123.242 33.6631 123.734 34.9953 124.72 35.9444C125.705 36.8569 127.074 37.3132 128.826 37.3132C132.002 37.3132 134.557 36.2911 136.492 34.2471C138.426 32.203 139.393 29.6297 139.393 26.5271L128.662 27.5674C126.801 27.7499 125.432 28.1696 124.556 28.8267C123.68 29.4837 123.242 30.524 123.242 31.9475Z" fill="white"/>
<path d="M151.639 39.8318V-0.410767H155.252V17.1645L154.705 19.9021H155.8C156.384 17.6026 157.643 15.741 159.578 14.3174C161.512 12.8939 163.94 12.1821 166.86 12.1821C170.765 12.1821 173.923 13.5144 176.332 16.179C178.777 18.8071 180 22.1652 180 26.2533C180 30.378 178.777 33.7726 176.332 36.4371C173.923 39.0652 170.765 40.3793 166.86 40.3793C163.94 40.3793 161.512 39.6675 159.578 38.244C157.643 36.8204 156.384 34.9588 155.8 32.6593H154.705L155.252 35.3969V39.8318H151.639ZM155.252 26.2533C155.252 29.9399 156.274 32.714 158.318 34.5756C160.362 36.4006 162.954 37.3132 166.093 37.3132C169.196 37.3132 171.678 36.4006 173.539 34.5756C175.437 32.7505 176.386 29.9764 176.386 26.2533C176.386 22.5667 175.437 19.8109 173.539 17.9858C171.641 16.1608 169.159 15.2482 166.093 15.2482C162.954 15.2482 160.362 16.179 158.318 18.0406C156.274 19.8656 155.252 22.6032 155.252 26.2533Z" fill="white"/>
</g>
<defs>
<clipPath id="clip0_73_45">
<rect width="180" height="41" fill="white"/>
</clipPath>
</defs>
</svg>
