<svg width="40" height="40" viewBox="0 0 40 40" fill="none" xmlns="http://www.w3.org/2000/svg">
<path d="M19.9565 24.9876C17.2535 24.9876 14.911 22.8252 14.911 19.942C14.911 17.239 17.0733 14.8964 19.9565 14.8964C22.6595 14.8964 25.0021 17.0588 25.0021 19.942C25.0021 22.645 22.6595 24.9876 19.9565 24.9876Z" fill="#D9D9D9"/>
<path fill-rule="evenodd" clip-rule="evenodd" d="M26.0833 7.68847C27.3019 7.68847 28.0054 7.94598 28.5205 8.1345C28.6147 8.169 28.7027 8.20119 28.7863 8.22907C28.9367 8.30429 29.0793 8.37166 29.2157 8.43609C29.7327 8.68038 30.1605 8.88249 30.5883 9.31026C31.1289 9.85086 31.4893 10.3915 31.6695 11.1123C31.8497 11.6528 32.0299 12.3736 32.2101 13.8152V26.0688C32.2101 27.2874 31.9526 27.9909 31.764 28.5059C31.7295 28.6002 31.6973 28.6881 31.6695 28.7718C31.5943 28.9222 31.5269 29.0648 31.4624 29.2012C31.2182 29.7182 31.016 30.146 30.5883 30.5738C30.0477 31.1143 29.5071 31.4747 28.7863 31.6549C28.2457 31.8351 27.5249 32.0153 26.0833 32.1955H13.8298C12.6112 32.1955 11.9076 31.938 11.3926 31.7495C11.2983 31.715 11.2104 31.6828 11.1268 31.6549C10.9763 31.5797 10.8338 31.5124 10.6974 31.4479C10.1803 31.2036 9.75256 31.0015 9.32479 30.5738C8.78419 30.0332 8.42379 29.4926 8.24359 28.7718C8.06339 28.2312 7.88319 27.5104 7.703 26.0688V13.8152C7.703 12.5967 7.96051 11.8931 8.14903 11.3781C8.18348 11.2839 8.21575 11.1958 8.24359 11.1123C8.31881 10.9618 8.38618 10.8192 8.45061 10.6829C8.69491 10.1658 8.89702 9.73803 9.32479 9.31026C9.86539 8.76966 10.406 8.40927 11.1268 8.22907C11.6674 8.04887 12.3882 7.86867 13.8298 7.68847H26.0833ZM19.9565 12.1934C15.6318 12.1934 12.208 15.6172 12.208 19.942C12.208 24.2668 15.6318 27.6906 19.9565 27.6906C24.2813 27.6906 27.7051 24.2668 27.7051 19.942C27.7051 15.6172 24.2813 12.1934 19.9565 12.1934ZM29.6873 12.0132C29.6873 13.0085 28.8805 13.8152 27.8853 13.8152C26.8901 13.8152 26.0833 13.0085 26.0833 12.0132C26.0833 11.018 26.8901 10.2113 27.8853 10.2113C28.8805 10.2113 29.6873 11.018 29.6873 12.0132Z" fill="#D9D9D9"/>
<path fill-rule="evenodd" clip-rule="evenodd" d="M35.4525 0C36.6278 0 37.755 0.466797 38.5861 1.2981C39.4172 2.12915 39.884 3.25635 39.884 4.43164V35.4524C39.884 36.6279 39.4172 37.7549 38.5861 38.5862C37.755 39.4172 36.6278 39.884 35.4525 39.884H4.43158C3.25623 39.884 2.12903 39.4172 1.29797 38.5862C0.466919 37.7549 0 36.6279 0 35.4524V4.43164C0 3.25635 0.466919 2.12915 1.29797 1.2981C2.12903 0.466797 3.25623 0 4.43158 0H35.4525ZM13.8298 4.98548C12.208 4.98548 11.1268 5.34588 10.2258 5.70628C9.32479 6.06668 8.42379 6.60728 7.5228 7.50827C6.6218 8.40927 6.2614 9.13006 5.72081 10.2113C5.36041 11.1123 5.18021 12.1934 5.00001 13.8152V26.0688C5.00001 27.6906 5.36041 28.7718 5.72081 29.6728C6.0812 30.5738 6.6218 31.4747 7.5228 32.3757C8.42379 33.2767 9.14459 33.6371 10.2258 34.1777C11.1268 34.5381 12.208 34.7183 13.8298 34.8985H26.0833C27.7051 34.8985 28.7863 34.5381 29.6873 34.1777C30.5883 33.8173 31.4893 33.2767 32.3903 32.3757C33.2913 31.4747 33.6517 30.754 34.1923 29.6728C34.5527 28.7718 34.7329 27.6906 34.9131 26.0688V13.8152C34.9131 12.1934 34.5527 11.1123 34.1923 10.2113C33.8319 9.31026 33.2913 8.40927 32.3903 7.50827C31.4893 6.60728 30.7685 6.24688 29.6873 5.70628C28.7863 5.34588 27.7051 5.16568 26.0833 4.98548H13.8298Z" fill="#D9D9D9"/>
</svg>
