<svg width="40" height="40" viewBox="0 0 40 40" fill="none" xmlns="http://www.w3.org/2000/svg">
<path d="M35.4525 0.115967C36.6278 0.115967 37.755 0.582862 38.5861 1.41394C39.4172 2.24502 39.8841 3.37221 39.8841 4.54753V35.5685C39.8841 36.7438 39.4172 37.871 38.5861 38.702C37.755 39.5331 36.6278 40 35.4525 40H4.43156C3.25624 40 2.12905 39.5331 1.29797 38.702C0.466895 37.871 0 36.7438 0 35.5685V4.54753C0 3.37221 0.466895 2.24502 1.29797 1.41394C2.12905 0.582862 3.25624 0.115967 4.43156 0.115967H35.4525ZM34.3446 34.4606V22.7169C34.3446 20.8012 33.5836 18.9638 32.2289 17.6092C30.8742 16.2545 29.0369 15.4935 27.1212 15.4935C25.2377 15.4935 23.0441 16.6457 21.9805 18.374V15.9145H15.7985V34.4606H21.9805V23.5368C21.9805 21.8306 23.3543 20.4347 25.0605 20.4347C25.8832 20.4347 26.6722 20.7615 27.254 21.3433C27.8357 21.925 28.1626 22.714 28.1626 23.5368V34.4606H34.3446ZM8.59723 12.4357C9.5845 12.4357 10.5313 12.0435 11.2294 11.3454C11.9276 10.6473 12.3197 9.70047 12.3197 8.7132C12.3197 6.65252 10.6579 4.96853 8.59723 4.96853C7.60408 4.96853 6.65161 5.36305 5.94935 6.06532C5.24709 6.76758 4.85256 7.72005 4.85256 8.7132C4.85256 10.7739 6.53655 12.4357 8.59723 12.4357ZM11.6772 34.4606V15.9145H5.53945V34.4606H11.6772Z" fill="#D9D9D9"/>
</svg>
