<svg width="27" height="27" viewBox="0 0 27 27" fill="none" xmlns="http://www.w3.org/2000/svg">
<path d="M13.0015 9.325C14.377 7.9195 16.168 7 18.2515 7C20.4395 7 22.538 7.86919 24.0851 9.41637C25.6323 10.9635 26.5015 13.062 26.5015 15.25V26.5H23.5015V15.25C23.5015 13.8576 22.9484 12.5223 21.9638 11.5377C20.9792 10.5531 19.6439 10 18.2515 10C16.8591 10 15.5238 10.5531 14.5392 11.5377C13.5546 12.5223 13.0015 13.8576 13.0015 15.25V26.5H10.0015V7.75H13.0015V9.325ZM2.5015 4.75C1.90476 4.75 1.33246 4.51295 0.910505 4.09099C0.488548 3.66903 0.251495 3.09674 0.251495 2.5C0.251495 1.90326 0.488548 1.33097 0.910505 0.90901C1.33246 0.487053 1.90476 0.25 2.5015 0.25C3.09823 0.25 3.67053 0.487053 4.09249 0.90901C4.51444 1.33097 4.7515 1.90326 4.7515 2.5C4.7515 3.09674 4.51444 3.66903 4.09249 4.09099C3.67053 4.51295 3.09823 4.75 2.5015 4.75ZM1.0015 7.75H4.0015V26.5H1.0015V7.75Z" fill="white"/>
</svg>
