<svg width="410" height="42" viewBox="0 0 410 42" fill="none" xmlns="http://www.w3.org/2000/svg">
<path d="M37.0855 12.6346C43.2177 12.6346 46.2838 17.2337 46.2838 26.432V40.8317H37.5235V27.0343C37.5235 24.4062 37.2315 22.6359 36.6475 21.7234C36.1 20.7744 35.0232 20.2998 33.4171 20.2998C31.1906 20.2998 29.6575 21.1941 28.818 22.9827C27.9785 24.7712 27.5587 27.4906 27.5587 31.1407V40.8317H18.7984V27.0343C18.7984 24.4062 18.5064 22.6359 17.9224 21.7234C17.3749 20.7744 16.2981 20.2998 14.692 20.2998C12.4655 20.2998 10.9324 21.1941 10.0929 22.9827C9.25337 24.7712 8.83361 27.4906 8.83361 31.1407V40.8317H0.0733337V13.1821H8.83361V15.9745L7.19106 20.9021H9.38113C10.6222 15.3904 13.6153 12.6346 18.3604 12.6346C22.8866 12.6346 25.6241 15.3904 26.5732 20.9021H28.161C29.402 15.3904 32.3769 12.6346 37.0855 12.6346Z" fill="white"/>
<path d="M50.0908 40.8318V33.1665H57.9203V20.5189L51.1858 20.8474V13.1821L61.5886 12.6346C63.1217 12.5616 64.2897 12.9266 65.0928 13.7296C65.9323 14.5327 66.3521 15.7007 66.3521 17.2338V33.1665H74.1815V40.8318H50.0908Z" fill="white"/>
<path d="M94.278 20.2998C91.7229 20.2998 89.7701 21.1029 88.4196 22.7089C87.069 24.2785 86.3938 26.9065 86.3938 30.5932V40.8317H77.6335V13.1821H86.3938V16.522L84.7512 21.4496H86.9413C87.5253 18.8215 88.7116 16.7045 90.5001 15.0984C92.2887 13.4559 94.5883 12.6346 97.3989 12.6346C100.976 12.6346 103.75 13.7844 105.721 16.084C107.729 18.3835 108.732 21.6504 108.732 25.8845V40.8317H99.9722V27.2533C99.9722 24.7347 99.5342 22.9462 98.6581 21.8876C97.8186 20.8291 96.3586 20.2998 94.278 20.2998Z" fill="white"/>
<path d="M229.687 40.8318H135.412V39.1344L137.055 34.2068H134.865C134.025 36.3969 132.766 38.1489 131.087 39.463C129.444 40.7405 127.072 41.3793 123.969 41.3793C120.137 41.3793 117.18 40.0105 115.099 37.2729C113.019 34.5353 111.979 31.1042 111.979 26.9796C111.979 22.8549 113.019 19.4421 115.099 16.741C117.18 14.0034 120.137 12.6346 123.969 12.6346C127.072 12.6346 129.444 13.2916 131.087 14.6057C132.766 15.8832 134.025 17.617 134.865 19.8071H137.055L135.412 14.8794V0.589233L229.687 0.589233V40.8318ZM135.412 26.9796C135.412 22.5264 132.967 20.2999 128.076 20.2999C123.184 20.2999 120.739 22.5264 120.739 26.9796C120.739 31.4692 123.184 33.714 128.076 33.714C132.967 33.714 135.412 31.4692 135.412 26.9796Z" fill="white"/>
<path d="M261.31 33.2212C261.31 38.6599 257.021 41.3793 248.443 41.3793C243.515 41.3793 239.847 40.4667 237.438 38.6417C235.065 36.7801 233.879 34.1703 233.879 30.8122H242.639C242.639 33.4768 244.665 34.809 248.717 34.809C251.272 34.809 252.549 34.1885 252.549 32.9475C252.549 32.327 252.239 31.8525 251.618 31.5239C250.998 31.1954 249.647 30.6844 247.567 29.9909C247.129 29.8449 246.8 29.7354 246.581 29.6624C246.399 29.5894 245.76 29.3886 244.665 29.0601C243.57 28.6951 242.858 28.4578 242.53 28.3483C242.238 28.2388 241.635 28.0016 240.723 27.6366C239.81 27.2716 239.19 26.9613 238.861 26.7058C238.533 26.4503 238.058 26.0853 237.438 25.6108C236.817 25.1362 236.379 24.68 236.124 24.242C235.905 23.7675 235.686 23.2017 235.467 22.5447C235.248 21.8876 235.138 21.1759 235.138 20.4093C235.138 17.9638 236.197 16.0657 238.314 14.7152C240.431 13.3281 243.387 12.6346 247.184 12.6346C251.6 12.6346 254.904 13.5836 257.094 15.4817C259.284 17.3432 260.379 19.7341 260.379 22.6542H251.618C251.618 21.6321 251.235 20.8109 250.469 20.1903C249.702 19.5333 248.589 19.2048 247.129 19.2048C244.975 19.2048 243.898 19.7341 243.898 20.7926C243.898 21.3766 244.391 21.9059 245.377 22.3804C246.399 22.8184 248.279 23.4754 251.016 24.3515C254.63 25.5195 257.021 26.505 258.189 27.3081C260.269 28.6951 261.31 30.6662 261.31 33.2212Z" fill="white"/>
<path d="M264.653 26.651C264.653 22.3439 265.985 18.931 268.65 16.4125C271.351 13.8939 274.873 12.6346 279.217 12.6346C283.56 12.6346 287.083 13.8574 289.784 16.303C292.485 18.712 293.835 21.9789 293.835 26.1035V28.8411H272.866C272.866 30.4837 273.468 31.7977 274.672 32.7832C275.913 33.7688 277.738 34.2615 280.148 34.2615C281.717 34.2615 283.031 33.9878 284.09 33.4403C285.148 32.8927 285.805 32.108 286.061 31.0859H294.821C294.675 32.1445 294.273 33.2577 293.616 34.4258C292.959 35.5573 292.047 36.6524 290.879 37.7109C289.747 38.7694 288.233 39.6454 286.334 40.339C284.473 41.0325 282.411 41.3793 280.148 41.3793C275.11 41.3793 271.259 39.974 268.595 37.1634C265.967 34.3528 264.653 30.8487 264.653 26.651ZM272.866 23.9135H285.623C285.623 22.7454 285.112 21.7599 284.09 20.9569C283.104 20.1538 281.48 19.7523 279.217 19.7523C276.954 19.7523 275.329 20.1538 274.344 20.9569C273.358 21.7234 272.866 22.7089 272.866 23.9135Z" fill="white"/>
<path d="M310.866 33.714L321.049 33.1665V40.8317L306.759 41.3793C305.263 41.4158 304.113 41.0325 303.31 40.2295C302.507 39.4264 302.105 38.2584 302.105 36.7254V20.8474H295.535V13.1821H302.105V7.98071L310.866 5.24312V13.1821H319.954V20.8474H310.866V33.714Z" fill="white"/>
<path d="M326.097 40.8317V37.7657H333.708V3.10781L328.287 3.65533V0.589235L333.762 0.0417147C334.967 -0.104288 335.861 0.13297 336.445 0.753488C337.029 1.37401 337.321 2.32304 337.321 3.60058V37.7657H344.932V40.8317H326.097Z" fill="white"/>
<path d="M349.628 33.276C349.628 31.0859 350.322 29.3156 351.709 27.9651C353.096 26.578 355.231 25.7568 358.115 25.5013L369.393 24.461C369.065 18.9858 366.364 16.2482 361.29 16.2482C358.991 16.2482 357.074 16.8505 355.541 18.055C354.008 19.2231 353.242 21.1211 353.242 23.7492H349.628C349.628 20.8656 350.65 18.3835 352.694 16.303C354.775 14.2224 357.64 13.1821 361.29 13.1821C364.977 13.1821 367.842 14.3319 369.886 16.6315C371.967 18.8946 373.007 21.8146 373.007 25.3918V37.7657H377.004V40.8317H372.405C370.397 40.8317 369.393 39.828 369.393 37.8204V36.1779L369.941 33.4403H368.846C368.262 35.7398 367.13 37.6379 365.451 39.1344C363.772 40.631 361.454 41.3793 358.498 41.3793C356.673 41.3793 355.121 41.1055 353.844 40.558C352.603 40.0105 351.69 39.2804 351.106 38.3679C350.559 37.4554 350.176 36.5976 349.957 35.7946C349.738 34.9916 349.628 34.152 349.628 33.276ZM353.242 32.9475C353.242 34.6631 353.734 35.9953 354.72 36.9444C355.705 37.8569 357.074 38.3132 358.826 38.3132C362.002 38.3132 364.557 37.2911 366.492 35.2471C368.426 33.203 369.393 30.6297 369.393 27.5271L358.662 28.5674C356.801 28.7499 355.432 29.1696 354.556 29.8267C353.68 30.4837 353.242 31.524 353.242 32.9475Z" fill="white"/>
<path d="M381.639 40.8318V0.589233H385.252V18.1645L384.705 20.9021H385.8C386.384 18.6026 387.643 16.741 389.578 15.3174C391.512 13.8939 393.939 13.1821 396.86 13.1821C400.765 13.1821 403.923 14.5144 406.332 17.179C408.777 19.8071 410 23.1652 410 27.2533C410 31.378 408.777 34.7726 406.332 37.4371C403.923 40.0652 400.765 41.3793 396.86 41.3793C393.939 41.3793 391.512 40.6675 389.578 39.244C387.643 37.8204 386.384 35.9588 385.8 33.6593H384.705L385.252 36.3969V40.8318H381.639ZM385.252 27.2533C385.252 30.9399 386.274 33.714 388.318 35.5756C390.362 37.4006 392.954 38.3132 396.093 38.3132C399.196 38.3132 401.678 37.4006 403.539 35.5756C405.437 33.7505 406.386 30.9764 406.386 27.2533C406.386 23.5667 405.437 20.8109 403.539 18.9858C401.641 17.1608 399.159 16.2482 396.093 16.2482C392.954 16.2482 390.362 17.179 388.318 19.0406C386.274 20.8656 385.252 23.6032 385.252 27.2533Z" fill="white"/>
<path d="M146.662 17.3252C142.443 17.3252 140.334 15.2246 140.334 11.041V10.3555C140.334 6.17188 142.443 4.07129 146.662 4.07129C150.688 4.07129 152.595 5.9873 152.63 9.38867V9.5293H148.174V9.23047C148.156 8.07031 147.559 7.45508 146.601 7.45508C145.563 7.45508 144.843 8.17578 144.843 9.82812V11.5684C144.843 13.2207 145.563 13.9414 146.601 13.9414C147.576 13.9414 148.209 13.3086 148.218 12.0957V11.7178H152.691V11.8584C152.674 15.4268 150.758 17.3252 146.662 17.3252ZM153.544 17V4.39648H161.19C163.713 4.39648 165.128 5.82031 165.128 8.17578V8.35156C165.128 10.0742 164.337 11.1904 163.01 11.5596C163.783 11.8496 164.24 12.5176 164.478 13.6514L164.812 15.2949C164.979 16.1123 165.181 16.6045 165.479 16.9121V17H160.848C160.672 16.6484 160.593 16.209 160.479 15.4443L160.338 14.1699C160.215 13.3965 159.819 13.0361 159.169 13.0361H157.877V17H153.544ZM159.573 10.2061C160.338 10.2061 160.812 9.72266 160.812 8.98438V8.79102C160.812 8.0791 160.338 7.5957 159.573 7.5957H157.877V10.2061H159.573ZM166.024 17V4.39648H176.202V7.6748H170.375V9.30957H175.06V11.999H170.375V13.7217H176.237V17H166.024ZM176.36 17L180.307 4.39648H185.466L189.43 17H184.938L184.517 15.2773H181.124L180.711 17H176.36ZM181.783 12.5352H183.849L182.812 8.28125L181.783 12.5352ZM191.249 17V7.75391H187.848V4.39648H199.001V7.75391H195.6V17H191.249ZM199.88 17V4.39648H204.23V17H199.88ZM208.555 17L204.556 4.39648H209.082L211.112 12.1748L213.081 4.39648H217.493L213.521 17H208.555ZM217.81 17V4.39648H227.987V7.6748H222.16V9.30957H226.845V11.999H222.16V13.7217H228.022V17H217.81ZM139.78 37L143.727 24.3965H148.886L152.85 37H148.358L147.937 35.2773H144.544L144.131 37H139.78ZM145.203 32.5352H147.269L146.231 28.2812L145.203 32.5352ZM158.835 32.5879V29.9512H165.216V37H162.324L161.779 35.5586C161.129 36.7627 159.872 37.3252 158 37.3252C154.59 37.3252 152.753 35.4883 152.753 31.709V30.4521C152.753 26.1631 154.862 24.0713 159.169 24.0713C163.238 24.0713 165.075 25.9258 165.137 29.0195V29.0811H160.689V29.0371C160.654 28.0176 160.074 27.4199 159.09 27.4199C157.991 27.4199 157.235 28.167 157.235 29.8545V31.542C157.235 33.2822 157.956 34.0029 159.187 34.0029C160.294 34.0029 160.9 33.3965 160.918 32.5879H158.835ZM166.253 37V24.3965H176.431V27.6748H170.604V29.3096H175.288V31.999H170.604V33.7217H176.466V37H166.253ZM177.362 37V24.3965H182.17L185.308 31.0674L185.299 24.3965H189.157V37H184.71L181.212 29.6787V37H177.362ZM196.355 37.3252C192.137 37.3252 190.027 35.2246 190.027 31.041V30.3555C190.027 26.1719 192.137 24.0713 196.355 24.0713C200.381 24.0713 202.288 25.9873 202.323 29.3887V29.5293H197.867V29.2305C197.85 28.0703 197.252 27.4551 196.294 27.4551C195.257 27.4551 194.536 28.1758 194.536 29.8281V31.5684C194.536 33.2207 195.257 33.9414 196.294 33.9414C197.27 33.9414 197.902 33.3086 197.911 32.0957V31.7178H202.385V31.8584C202.367 35.4268 200.451 37.3252 196.355 37.3252ZM205.909 37V33.124L201.805 24.3965H206.401L208.168 29.0107L209.899 24.3965H214.364L210.26 33.124V37H205.909Z" fill="#1E1E1E"/>
</svg>
