<svg width="40" height="29" viewBox="0 0 40 29" fill="none" xmlns="http://www.w3.org/2000/svg">
<path d="M34.255 28.6957H40L35.7631 3.88453e-06H23.8423C23.8423 3.88453e-06 20.8262 26.6354 20.6108 27.1505C20.3953 27.6655 19.749 27.6655 19.5336 27.1505C19.3181 26.6354 16.3738 0 16.3738 0H4.23762L0 28.6957H5.8893C5.8893 28.6957 9.55171 2.28094 9.76715 1.69231C9.98258 1.10368 10.6289 1.10368 10.8443 1.69231C11.0598 2.28094 13.9322 28.6957 13.9322 28.6957H26.2121C26.2121 28.6957 29.0846 2.20736 29.3 1.69231C29.5154 1.17726 30.0899 1.10368 30.3054 1.69231C30.5208 2.28094 34.255 28.6957 34.255 28.6957Z" fill="#FAFAFA"/>
</svg>
