<svg width="81" height="71" viewBox="0 0 81 71" fill="none" xmlns="http://www.w3.org/2000/svg">
<path d="M26.1167 69.4283C26.115 69.4182 26.1117 69.4098 26.11 69.3996L26.0745 69.1885H20.7015L13.7576 57.1622L13.5262 57.3632C13.4435 57.4341 13.3573 57.5034 13.2712 57.5709L13.0972 57.7061L20.0917 69.8219L20.2133 70.033H26.0458L26.1336 69.5229L26.1251 69.4773C26.1218 69.4621 26.1184 69.4452 26.115 69.43L26.1167 69.4283Z" fill="url(#paint0_linear_28_19)"/>
<path d="M71.56 50.166L71.332 49.8349L60.1586 69.1885H33.2869L33.2683 69.4233C33.2599 69.5331 33.2497 69.6429 33.2379 69.7527L33.2075 70.0331H60.6468L71.8742 50.5882L71.7695 50.4531C71.6968 50.3602 71.6276 50.2639 71.56 50.166Z" fill="url(#paint1_linear_28_19)"/>
<path d="M20.7015 0.846236H46.1308L46.0699 0.542191C46.048 0.43409 46.0294 0.325979 46.0125 0.216188L45.9804 0H20.215L0.0726193 34.8881L0 35.0148L2.99475 40.2003L3.21265 40.077C3.30724 40.0247 3.40182 39.9723 3.49979 39.925L3.74136 39.8051L0.976299 35.0165L20.7049 0.846236H20.7015Z" fill="url(#paint2_linear_28_19)"/>
<path d="M60.7684 0.21283L60.6468 0.00169373H57.7669L57.7449 0.231407C57.7348 0.339509 57.7213 0.445926 57.7044 0.552339L57.6571 0.846239H60.1587L79.8872 35.0165L76.4972 40.8861L76.8908 40.9216C77.009 40.9317 77.1255 40.9452 77.2404 40.9638L77.411 40.9892L80.7385 35.226L80.8601 35.0148L60.7667 0.211139L60.7684 0.21283Z" fill="url(#paint3_linear_28_19)"/>
<path d="M66.2478 23.2183C66.1701 23.2993 66.0907 23.377 66.008 23.453L65.8593 23.5898L72.4569 35.0165L56.4427 62.7531H50.1541L50.3839 63.1365C50.4481 63.2429 50.5072 63.351 50.5646 63.4608L50.6356 63.5976H56.9308L73.3116 35.226L73.4332 35.0148L66.4809 22.975L66.2478 23.2166V23.2183Z" fill="url(#paint4_linear_28_19)"/>
<path d="M23.9277 63.5993H40.045L40.1176 63.4675C40.1868 63.3408 40.246 63.2378 40.3051 63.1432L40.55 62.7547H24.4158L8.40153 35.0182L14.7289 24.0577L14.7137 23.9682C14.685 23.7891 14.663 23.6067 14.6495 23.4294L14.5853 22.6169L7.42523 35.0182L23.806 63.3898L23.9277 63.601V63.5993Z" fill="url(#paint5_linear_28_19)"/>
<path d="M16.9787 18.4736L17.7709 18.0412C17.9415 17.9483 18.1155 17.8621 18.2929 17.7878L18.3705 17.754L24.4175 7.27997H56.446L60.1029 13.6141L60.2954 13.5532C60.4019 13.5195 60.51 13.4907 60.6181 13.4637L60.9441 13.3826L57.0541 6.64487L56.9325 6.43373H23.9293L16.9804 18.4719L16.9787 18.4736Z" fill="url(#paint6_linear_28_19)"/>
<path d="M61.2227 44.7626C61.4102 44.6342 61.6045 44.5177 61.8004 44.4113L61.8646 44.3774L67.1464 35.2277L67.268 35.0165L53.9715 11.9858L53.8499 11.7746H43.9467L43.8809 11.8219C43.717 11.9385 43.5464 12.0466 43.3741 12.1462L42.5549 12.6192H53.3617L66.2934 35.0165L60.8613 44.4247L61.2227 44.7609V44.7626Z" fill="url(#paint7_linear_28_19)"/>
<path d="M27.0103 58.2601H53.8482L58.6469 49.9481L58.6401 49.8687C58.6334 49.7791 58.6266 49.6896 58.6216 49.6001C58.6165 49.4971 58.6165 49.389 58.6199 49.2589L58.1469 49.1255L53.3601 57.4155H27.4967L21.9717 47.8451L21.8484 48.5258C21.8214 48.6745 21.7859 48.8299 21.742 48.9853L21.7133 49.0883L26.8869 58.0506L27.0086 58.2618L27.0103 58.2601Z" fill="url(#paint8_linear_28_19)"/>
<path d="M38.312 12.6192L37.5249 12.1479C37.3576 12.0483 37.1955 11.9402 37.0418 11.8236L36.9742 11.7729H27.0119L13.6665 34.8881L13.5938 35.0148L17.4382 41.6732L17.5395 41.7003C17.6899 41.7408 17.8436 41.7898 17.9973 41.8455L18.6509 42.0837L14.5701 35.0148L27.5018 12.6175H38.3153L38.312 12.6192Z" fill="url(#paint9_linear_28_19)"/>
<path d="M30.3462 52.4817H38.2038L37.5502 52.0206C37.4032 51.9175 37.263 51.8078 37.1313 51.6963L37.0603 51.6355H30.8327L21.2369 35.0148L25.9394 26.87L25.9292 26.7873C25.9089 26.6116 25.8954 26.4545 25.8887 26.3093C25.8887 26.2924 25.8887 26.2772 25.8887 26.2603L25.8634 25.3161L20.2623 35.0165L30.2229 52.2706L30.3445 52.4817H30.3462Z" fill="url(#paint10_linear_28_19)"/>
<path d="M60.5961 35.0165L50.6355 17.7625L50.5139 17.5513H30.3479L28.3666 20.9836L28.7196 21.3248C28.902 21.2116 29.0878 21.1085 29.2719 21.0173L29.3412 20.9836L30.836 18.3959H50.0275L59.6232 35.0165L50.0275 51.6372H44.6528L44.5835 51.6929C44.4433 51.8061 44.2947 51.9159 44.1427 52.0172L43.4552 52.48H50.5156L60.4779 35.226L60.5995 35.0148L60.5961 35.0165Z" fill="url(#paint11_linear_28_19)"/>
<defs>
<linearGradient id="paint0_linear_28_19" x1="13.0972" y1="63.5976" x2="26.1353" y2="63.5976" gradientUnits="userSpaceOnUse">
<stop stop-color="white"/>
<stop offset="1" stop-color="#706F6F"/>
</linearGradient>
<linearGradient id="paint1_linear_28_19" x1="33.2075" y1="59.934" x2="71.8725" y2="59.934" gradientUnits="userSpaceOnUse">
<stop stop-color="white"/>
<stop offset="1" stop-color="#706F6F"/>
</linearGradient>
<linearGradient id="paint2_linear_28_19" x1="-0.00168909" y1="20.1018" x2="46.1308" y2="20.1018" gradientUnits="userSpaceOnUse">
<stop stop-color="white"/>
<stop offset="1" stop-color="#706F6F"/>
</linearGradient>
<linearGradient id="paint3_linear_28_19" x1="57.6571" y1="20.4971" x2="80.8618" y2="20.4971" gradientUnits="userSpaceOnUse">
<stop stop-color="white"/>
<stop offset="1" stop-color="#706F6F"/>
</linearGradient>
<linearGradient id="paint4_linear_28_19" x1="50.1558" y1="43.288" x2="73.4332" y2="43.288" gradientUnits="userSpaceOnUse">
<stop stop-color="white"/>
<stop offset="1" stop-color="#706F6F"/>
</linearGradient>
<linearGradient id="paint5_linear_28_19" x1="7.42692" y1="43.1073" x2="40.55" y2="43.1073" gradientUnits="userSpaceOnUse">
<stop stop-color="white"/>
<stop offset="1" stop-color="#706F6F"/>
</linearGradient>
<linearGradient id="paint6_linear_28_19" x1="16.9787" y1="12.4536" x2="60.9424" y2="12.4536" gradientUnits="userSpaceOnUse">
<stop stop-color="white"/>
<stop offset="1" stop-color="#706F6F"/>
</linearGradient>
<linearGradient id="paint7_linear_28_19" x1="42.5549" y1="28.2686" x2="67.268" y2="28.2686" gradientUnits="userSpaceOnUse">
<stop stop-color="white"/>
<stop offset="1" stop-color="#706F6F"/>
</linearGradient>
<linearGradient id="paint8_linear_28_19" x1="21.7149" y1="53.0526" x2="58.6486" y2="53.0526" gradientUnits="userSpaceOnUse">
<stop stop-color="white"/>
<stop offset="1" stop-color="#706F6F"/>
</linearGradient>
<linearGradient id="paint9_linear_28_19" x1="13.5921" y1="26.9292" x2="38.312" y2="26.9292" gradientUnits="userSpaceOnUse">
<stop stop-color="white"/>
<stop offset="1" stop-color="#706F6F"/>
</linearGradient>
<linearGradient id="paint10_linear_28_19" x1="20.264" y1="38.8998" x2="38.2038" y2="38.8998" gradientUnits="userSpaceOnUse">
<stop stop-color="white"/>
<stop offset="1" stop-color="#706F6F"/>
</linearGradient>
<linearGradient id="paint11_linear_28_19" x1="28.3649" y1="35.0165" x2="60.5961" y2="35.0165" gradientUnits="userSpaceOnUse">
<stop stop-color="white"/>
<stop offset="1" stop-color="#706F6F"/>
</linearGradient>
</defs>
</svg>
