<svg width="299" height="115" viewBox="0 0 299 115" fill="none" xmlns="http://www.w3.org/2000/svg">
<path d="M209.186 18.0849L209.186 18.0851C199.843 27.8557 195.202 40.2513 195.202 55.1499C195.202 70.1386 199.841 82.6246 209.181 92.4877L209.186 92.4931L209.191 92.4985C218.657 102.297 231.254 107.145 246.82 107.145C260.65 107.145 272.041 103.595 280.86 96.3726L280.861 96.3714C289.777 89.0504 294.972 79.0368 296.489 66.458L296.692 64.7783H295H272.848H271.589L271.371 66.0188C270.322 71.9916 267.641 76.5548 263.362 79.8255C259.053 83.0264 253.663 84.6703 247.097 84.6703C238.756 84.6703 232.303 82.0989 227.559 77.0727C222.825 72.0563 220.354 64.8236 220.354 55.1499C220.354 45.4744 222.826 38.2955 227.55 33.3757L227.55 33.3758L227.559 33.3663C232.303 28.34 238.756 25.7686 247.097 25.7686C253.667 25.7686 259.059 27.4145 263.37 30.6193C267.641 33.7951 270.322 38.3061 271.371 44.281L271.589 45.5215H272.848H295H296.693L296.489 43.8405C294.971 31.3543 289.776 21.4332 280.86 14.2061C272.043 6.89058 260.651 3.29395 246.82 3.29395C231.25 3.29395 218.65 8.19142 209.186 18.0849Z" fill="#1E1E1E" stroke="#FAFAFA" stroke-width="3"/>
<path d="M196.854 108.754L179.649 113L172.701 91.0763C163.006 92.9156 152.679 91.7933 141.722 87.7091C129.531 83.1651 120.814 77.0652 115.569 69.4094C110.424 61.7081 109.624 53.1062 113.169 43.6036C115.739 36.7124 119.755 32.2605 125.217 30.2478C130.752 28.2622 136.24 28.2836 141.683 30.3122C147.561 32.503 151.729 36.618 154.187 42.6571L155.811 38.3048L146.715 9.50775L149.516 2L208.947 24.1519L203.265 39.385L167.78 26.1588L182.379 67.7895C187.99 62.9404 192.392 56.2361 195.584 47.6766L213 54.168C207.724 68.313 199.567 78.6578 188.53 85.2023L196.854 108.754ZM147.404 72.476C154.661 75.1807 161.383 75.9927 167.572 74.9119L164.167 64.0995C162.425 58.5755 160.332 54.3253 157.888 51.3488C155.444 48.3722 152.227 46.1402 148.236 44.6526C144.245 43.165 140.578 42.9136 137.235 43.8984C133.965 44.9103 131.667 47.1934 130.341 50.7478C126.986 59.7426 132.674 66.9853 147.404 72.476Z" fill="#FF5DE4" stroke="#FAFAFA" stroke-width="3"/>
<path d="M139.458 70.8909L139.473 70.8858L139.487 70.8804C143.584 69.3536 146.969 67.2772 149.589 64.6194C152.311 61.9531 154.431 58.4459 155.989 54.161C157.564 49.8255 158.33 44.6885 158.33 38.7858C158.33 31.5803 157.231 25.4774 154.956 20.5426C152.671 15.5851 149.214 11.8466 144.597 9.39016C140.229 7.01744 135.526 5.40615 130.494 4.55396C125.599 3.70926 119.647 3.29395 112.656 3.29395H3H1.5V4.79395V101.815V103.315H3H25.509H27.009V101.815V74.4153H112.656C118.227 74.4153 123.07 74.1845 127.175 73.7176C131.322 73.2459 135.417 72.3028 139.458 70.8909ZM128.896 28.0927L128.919 28.1067L128.942 28.1199C131.289 29.4418 132.821 32.6718 132.821 38.7858C132.821 44.9868 131.29 48.3304 128.919 49.7402C126.288 51.2656 121.439 52.1486 114.063 52.1486H27.009V25.5606H114.063C121.44 25.5606 126.276 26.4907 128.896 28.0927Z" fill="#1E1E1E" stroke="#FAFAFA" stroke-width="3"/>
</svg>
