<svg width="90" height="83" viewBox="0 0 90 83" fill="none" xmlns="http://www.w3.org/2000/svg">
<path d="M89.5 31.8065L56.5983 1L16.8268 7.04525L1 51.0825L33.9017 81.889L73.3454 75.8906L73.8015 75.4813L89.498 31.8045L89.5 31.8065ZM56.861 2.08118L88.4738 31.6823L49.5717 37.3509L45.5422 33.5779L56.861 2.08118ZM33.6431 80.8098L2.03029 51.2087L40.9324 45.5402L44.9619 49.3131L33.6431 80.8098ZM41.3885 45.1309L45.3162 34.203L49.1136 37.7601L45.1859 48.688L41.3885 45.1309ZM56.2705 1.91625L45.0556 33.1218L17.7267 7.53187L56.2725 1.91422L56.2705 1.91625ZM17.1851 7.86376L44.8316 33.751L40.8082 44.9436L1.81649 50.6264L17.1851 7.8658V7.86376ZM34.2315 80.9748L45.4465 49.7671L72.7753 75.3571L34.2295 80.9748H34.2315ZM73.3189 75.0293L45.6725 49.1421L49.6959 37.9495L88.6876 32.2687L73.3189 75.0293Z" stroke="url(#paint0_linear_234_99)" stroke-width="0.5" stroke-miterlimit="10"/>
<defs>
<linearGradient id="paint0_linear_234_99" x1="0.421742" y1="41.4455" x2="90.0803" y2="41.4455" gradientUnits="userSpaceOnUse">
<stop stop-color="white"/>
<stop offset="1" stop-color="#1E1E1E"/>
</linearGradient>
</defs>
</svg>
