<svg width="557" height="99" viewBox="0 0 557 99" fill="none" xmlns="http://www.w3.org/2000/svg">
<path d="M85.328 68.688C85.328 76.88 82.2133 83.28 75.984 87.888C69.7547 92.496 59.984 94.8 46.672 94.8C30.9707 94.8 19.5787 91.7707 12.496 85.712C5.49867 79.568 2 70.5653 2 58.704H22.48C22.48 65.5307 24.3147 70.2667 27.984 72.912C31.7387 75.5573 38.1813 76.88 47.312 76.88C59.0027 76.88 64.848 74.2347 64.848 68.944C64.848 67.0667 63.824 65.36 61.776 63.824C59.728 62.2027 57.552 60.9653 55.248 60.112C52.944 59.1733 49.36 57.8933 44.496 56.272C43.984 56.1013 43.5573 55.9733 43.216 55.888C42.8747 55.8027 42.448 55.6747 41.936 55.504C41.5093 55.3333 41.0827 55.1627 40.656 54.992C36.3893 53.5413 33.2747 52.4747 31.312 51.792C29.3493 51.024 26.704 49.9573 23.376 48.592C20.048 47.1413 17.5733 45.8187 15.952 44.624C14.416 43.344 12.752 41.7653 10.96 39.888C9.168 38.0107 7.888 35.92 7.12 33.616C6.43733 31.312 6.096 28.7093 6.096 25.808C6.096 18.128 9.08267 12.24 15.056 8.144C21.1147 4.048 29.9467 2 41.552 2C54.7787 2 64.7627 4.98667 71.504 10.96C78.2453 16.848 81.616 24.528 81.616 34H61.136C61.136 24.6133 54.608 19.92 41.552 19.92C31.568 19.92 26.576 22.1387 26.576 26.576C26.576 28.624 27.5573 30.288 29.52 31.568C31.4827 32.848 36.048 34.6827 43.216 37.072C55.1627 41.168 63.184 44.1973 67.28 46.16C79.312 52.2187 85.328 59.728 85.328 68.688Z" fill="#FAFAFA" stroke="#1E1E1E" stroke-width="3"/>
<path d="M148.488 5.28003V23.2H119.048V95.52H98.568V23.2H69V5.28003H148.488Z" fill="#FAFAFA" stroke="#1E1E1E" stroke-width="3"/>
<path d="M134.56 50.336C134.56 36.9387 138.741 25.888 147.104 17.184C155.467 8.39467 166.645 4 180.64 4C194.635 4 205.771 8.39467 214.048 17.184C222.411 25.888 226.592 36.9387 226.592 50.336C226.592 63.8187 222.411 74.9547 214.048 83.744C205.771 92.448 194.635 96.8 180.64 96.8C166.56 96.8 155.339 92.448 146.976 83.744C138.699 74.9547 134.56 63.8187 134.56 50.336ZM161.568 29.472C157.216 34.5067 155.04 41.4613 155.04 50.336C155.04 59.2107 157.216 66.208 161.568 71.328C165.92 76.3627 172.277 78.88 180.64 78.88C189.003 78.88 195.317 76.3627 199.584 71.328C203.936 66.208 206.112 59.2107 206.112 50.336C206.112 41.4613 203.936 34.5067 199.584 29.472C195.317 24.4373 189.003 21.92 180.64 21.92C172.277 21.92 165.92 24.4373 161.568 29.472Z" fill="#FAFAFA" stroke="#1E1E1E" stroke-width="3"/>
<path d="M218.16 95.52V5.28003H329.104C355.899 5.28003 369.296 13.6854 369.296 30.496C369.296 42.1867 361.659 48.928 346.384 50.72V55.84H359.568C366.821 55.84 370.448 59.4667 370.448 66.72V95.52H349.968V63.776H238.64V95.52H218.16ZM238.64 45.856H329.104C332.261 45.856 334.523 45.856 335.888 45.856C337.339 45.7707 339.088 45.5574 341.136 45.216C343.184 44.7894 344.635 44.192 345.488 43.424C346.341 42.656 347.109 41.5467 347.792 40.096C348.475 38.6454 348.816 36.8107 348.816 34.592C348.816 32.3734 348.475 30.5387 347.792 29.088C347.109 27.552 346.341 26.4 345.488 25.632C344.635 24.864 343.184 24.3094 341.136 23.968C339.088 23.5414 337.339 23.328 335.888 23.328C334.523 23.2427 332.261 23.2 329.104 23.2H238.64V45.856Z" fill="#FAFAFA" stroke="#1E1E1E" stroke-width="3"/>
<path d="M423 23.2H402.52V77.6H423V95.52H361.56V77.6H382.04V23.2H361.56V5.28003H423V23.2Z" fill="#FAFAFA" stroke="#1E1E1E" stroke-width="3"/>
<path d="M417.84 95.52V5.28003H482.224V23.2H438.32V41.376H475.824V59.296H438.32V77.6H482.224V95.52H417.84Z" fill="#FAFAFA" stroke="#1E1E1E" stroke-width="3"/>
<path d="M555.328 70.688C555.328 78.88 552.213 85.28 545.984 89.888C539.755 94.496 529.984 96.8 516.672 96.8C500.971 96.8 489.579 93.7707 482.496 87.712C475.499 81.568 472 72.5653 472 60.704H492.48C492.48 67.5307 494.315 72.2667 497.984 74.912C501.739 77.5573 508.181 78.88 517.312 78.88C529.003 78.88 534.848 76.2347 534.848 70.944C534.848 69.0667 533.824 67.36 531.776 65.824C529.728 64.2027 527.552 62.9653 525.248 62.112C522.944 61.1733 519.36 59.8933 514.496 58.272C513.984 58.1013 513.557 57.9733 513.216 57.888C512.875 57.8027 512.448 57.6747 511.936 57.504C511.509 57.3333 511.083 57.1627 510.656 56.992C506.389 55.5413 503.275 54.4747 501.312 53.792C499.349 53.024 496.704 51.9573 493.376 50.592C490.048 49.1413 487.573 47.8187 485.952 46.624C484.416 45.344 482.752 43.7653 480.96 41.888C479.168 40.0107 477.888 37.92 477.12 35.616C476.437 33.312 476.096 30.7093 476.096 27.808C476.096 20.128 479.083 14.24 485.056 10.144C491.115 6.048 499.947 4 511.552 4C524.779 4 534.763 6.98667 541.504 12.96C548.245 18.848 551.616 26.528 551.616 36H531.136C531.136 26.6133 524.608 21.92 511.552 21.92C501.568 21.92 496.576 24.1387 496.576 28.576C496.576 30.624 497.557 32.288 499.52 33.568C501.483 34.848 506.048 36.6827 513.216 39.072C525.163 43.168 533.184 46.1973 537.28 48.16C549.312 54.2187 555.328 61.728 555.328 70.688Z" fill="#FAFAFA" stroke="#1E1E1E" stroke-width="3"/>
</svg>
