<svg width="92" height="79" viewBox="0 0 92 79" fill="none" xmlns="http://www.w3.org/2000/svg">
<g clip-path="url(#clip0_136_71)">
<path d="M-17.39 77.7189V1.08691L109 1.08691C131.754 1.08691 143.131 8.22474 143.131 22.5004C143.131 32.4281 136.645 38.1529 123.674 39.6746V44.0226H134.87C141.03 44.0226 144.109 47.1023 144.109 53.2619V77.7189H126.718V50.7618H111.717H0.00163841V77.7189H-17.39ZM0.00163841 35.5441H109C111.681 35.5441 113.602 35.5441 114.761 35.5441C115.993 35.4717 117.478 35.2905 119.218 35.0006C120.957 34.6383 122.189 34.1311 122.913 33.4789C123.638 32.8267 124.29 31.8846 124.87 30.6527C125.45 29.4208 125.739 27.8628 125.739 25.9787C125.739 24.0946 125.45 22.5366 124.87 21.3047C124.29 20.0003 123.638 19.0221 122.913 18.3699C122.189 17.7177 120.957 17.2467 119.218 16.9568C117.478 16.5945 80.2245 16.4133 18.0455 16.4133C16.886 16.3408 111.681 16.3046 109 16.3046H0.00163841V35.5441Z" fill="white"/>
</g>
<defs>
<clipPath id="clip0_136_71">
<rect width="92" height="79" fill="white"/>
</clipPath>
</defs>
</svg>
